<svg xmlns="http://www.w3.org/2000/svg" viewBox="0 0 14.93 21.24"><defs><style>.cls-1{fill:#2f4858;}</style></defs><title>header-location</title><g id="Layer_2" data-name="Layer 2"><g id="Layer_1-2" data-name="Layer 1"><path class="cls-1" d="M14,5.07,12.17,2.25,9.61,1.11,9.66.8,8.72.71,8.59.65v0L7.3.56V.42L7,.53,5.93.42l.1.5-1.86.72L.9,4.84.74,9.42l6.71,11,3-4.5,2.67-4.34L14.23,8.5ZM8.82,10.41,5.93,10.1,4.4,7.89,5.24,5,7,4.34l1.18.2,1.52.76.76,3.05Z"/><path class="cls-1" d="M7.47,0A7.47,7.47,0,0,0,1.11,11.39L7,20.94a.63.63,0,0,0,.53.3h0a.62.62,0,0,0,.52-.3l5.78-9.65A7.47,7.47,0,0,0,7.47,0Zm5.34,10.65L7.56,19.42,2.17,10.74A6.23,6.23,0,1,1,13.69,7.47,6.14,6.14,0,0,1,12.81,10.65Z"/><path class="cls-1" d="M7.47,3.73A3.74,3.74,0,1,0,11.2,7.47,3.75,3.75,0,0,0,7.47,3.73Zm0,6.23A2.5,2.5,0,1,1,10,7.47,2.5,2.5,0,0,1,7.47,10Z"/></g></g></svg>