<svg xmlns="http://www.w3.org/2000/svg" viewBox="0 0 65.73 51.39"><defs><style>.cls-1,.cls-3{fill:#133e56;}.cls-2{fill:#e0ff00;}.cls-3{stroke:#002333;stroke-miterlimit:10;stroke-width:0.03px;}</style></defs><title>mountain</title><g id="Layer_2" data-name="Layer 2"><g id="Layer_1-2" data-name="Layer 1"><path class="cls-1" d="M14.5,23.52.29,48.12a2.18,2.18,0,0,0,1.89,3.27H30.59a2.18,2.18,0,0,0,1.89-3.27L18.27,23.52A2.18,2.18,0,0,0,14.5,23.52Z"/><path class="cls-2" d="M29.39,14.8,11.65,45.52A3.9,3.9,0,0,0,15,51.37H50.5a3.9,3.9,0,0,0,3.37-5.85L36.14,14.8A3.9,3.9,0,0,0,29.39,14.8Z"/><path class="cls-1" d="M47.5,23.09,32.8,48.55a1.89,1.89,0,0,0,1.63,2.84H63.84a1.89,1.89,0,0,0,1.64-2.84L50.77,23.09A1.89,1.89,0,0,0,47.5,23.09Z"/><line class="cls-3" x1="32.82" x2="32.82" y2="12.67"/><polygon class="cls-1" points="37.68 0 32.82 0 32.82 2.88 37.68 2.88 35.18 1.44 37.68 0"/></g></g></svg>