<svg xmlns="http://www.w3.org/2000/svg" viewBox="0 0 25.76 25.76"><defs><style>.cls-1{fill:#133e56;}</style></defs><title>phonephone</title><g id="Layer_2" data-name="Layer 2"><g id="Layer_1-2" data-name="Layer 1"><path class="cls-1" d="M13.73,15a6.46,6.46,0,0,0-.63.74A34.43,34.43,0,0,1,10,12.66a7.66,7.66,0,0,0,.74-.63c2.24-2.24,2-5.3-.73-8s-5.76-3-8-.73a7.67,7.67,0,0,0-.86,9.3,45.43,45.43,0,0,0,12,12,7.39,7.39,0,0,0,4.08,1.18,7.41,7.41,0,0,0,5.22-2c2.24-2.24,2-5.3-.73-8S16,12.76,13.73,15Z"/><path class="cls-1" d="M14.86,0a1,1,0,0,0,0,2,8.91,8.91,0,0,1,8.9,8.9,1,1,0,1,0,2,0A10.91,10.91,0,0,0,14.86,0Z"/><path class="cls-1" d="M18.81,10.64a1,1,0,0,0,2,0A5.83,5.83,0,0,0,14.86,5a1,1,0,0,0,0,2A3.83,3.83,0,0,1,18.81,10.64Z"/></g></g></svg>