<svg xmlns="http://www.w3.org/2000/svg" viewBox="0 0 52.04 56.22"><defs><style>.cls-1{fill:#133e56;}.cls-2,.cls-3{fill:none;stroke:#002333;stroke-linecap:round;stroke-miterlimit:10;stroke-width:0.25px;}.cls-3{stroke-dasharray:3.01 3.01;}.cls-4{fill:#fff;}.cls-5{fill:#f4e90c;}</style></defs><title>target</title><g id="Layer_2" data-name="Layer 2"><g id="Layer_1-2" data-name="Layer 1"><polygon class="cls-1" points="5.01 46.62 0 49.51 0 56.22 16.63 46.62 0 37.02 0 43.73 5.01 46.62"/><path class="cls-2" d="M17,47.17l1.39.51"/><path class="cls-3" d="M21.22,48.66a29.42,29.42,0,0,0,3.91,1,16,16,0,0,0,8.41-.55c2.37-.9,4.59-2.86,4.76-5.38A6.22,6.22,0,0,0,36,38.83c-5.12-4.52-14.88-4-17.57-11.14a9.29,9.29,0,0,1,1.81-9.46,11.82,11.82,0,0,1,6.87-3.31,29.42,29.42,0,0,1,5.65-.26"/><path class="cls-2" d="M34.25,14.75l1.47.12"/><circle class="cls-1" cx="42.65" cy="9.4" r="9.4"/><circle class="cls-4" cx="42.65" cy="9.4" r="6.58"/><circle class="cls-5" cx="42.65" cy="9.4" r="4.23"/></g></g></svg>